<svg xmlns="http://www.w3.org/2000/svg" width="32" height="32" aria-label="RisqBase" role="img" viewBox="0 0 160 160"><rect width="160" height="160" fill="#e7e5e4" rx="28"/><rect width="152" height="152" x="4" y="4" fill="#fff" rx="24"/><path fill="#4338ca" d="M22.1 108V52.3h14.8l.3 11.2q1.7-5.9 4.9-8.6 3.2-2.6 8.4-2.6h5.1v12.9h-5.1q-6.6 0-9.7 2.7t-3.1 8.8V108zm39.2 15.6V34.2h15.3v89.4zm48.3-14.3q8.5 0 14.9-3.6t9.9-10.2 3.5-15.3q0-8.8-3.5-15.4t-9.9-10.2-14.9-3.6Q98.3 51 91 56.9q-7.4 5.8-8.7 16l16.1.7q.8-5.1 3.7-7.8 3-2.7 7.5-2.7 5.8 0 9 4.5 3.2 4.4 3.2 12.6 0 8.1-3.2 12.6t-9 4.5q-4.7 0-7.6-2.8t-3.6-8.3l-16.1.6q1.2 10.3 8.6 16.4 7.3 6.1 18.7 6.1"/></svg>